<mxfile host="app.diagrams.net" modified="2024-01-05T08:58:03.854Z" agent="Mozilla/5.0 (Windows NT 10.0; Win64; x64) AppleWebKit/537.36 (KHTML, like Gecko) Chrome/120.0.0.0 Safari/537.36" etag="vPECTYOF2y8npL0URm53" version="22.1.16" type="github">
  <diagram id="prtHgNgQTEPvFCAcTncT" name="Page-1">
    <mxGraphModel dx="1502" dy="1768" grid="1" gridSize="10" guides="1" tooltips="1" connect="1" arrows="1" fold="1" page="1" pageScale="1" pageWidth="827" pageHeight="1169" math="0" shadow="0">
      <root>
        <mxCell id="0" />
        <mxCell id="1" parent="0" />
        <mxCell id="j3qhWurZc81nif1GGxjJ-3" value="" style="edgeStyle=orthogonalEdgeStyle;rounded=0;orthogonalLoop=1;jettySize=auto;html=1;" edge="1" parent="1" source="j3qhWurZc81nif1GGxjJ-1" target="j3qhWurZc81nif1GGxjJ-2">
          <mxGeometry relative="1" as="geometry" />
        </mxCell>
        <mxCell id="j3qhWurZc81nif1GGxjJ-9" value="具有特定格式" style="edgeLabel;html=1;align=center;verticalAlign=middle;resizable=0;points=[];" vertex="1" connectable="0" parent="j3qhWurZc81nif1GGxjJ-3">
          <mxGeometry x="0.02" y="-1" relative="1" as="geometry">
            <mxPoint as="offset" />
          </mxGeometry>
        </mxCell>
        <mxCell id="j3qhWurZc81nif1GGxjJ-11" value="" style="edgeStyle=orthogonalEdgeStyle;rounded=0;orthogonalLoop=1;jettySize=auto;html=1;" edge="1" parent="1" source="j3qhWurZc81nif1GGxjJ-1" target="j3qhWurZc81nif1GGxjJ-10">
          <mxGeometry relative="1" as="geometry" />
        </mxCell>
        <mxCell id="j3qhWurZc81nif1GGxjJ-12" value="不具有特定格式" style="edgeLabel;html=1;align=center;verticalAlign=middle;resizable=0;points=[];" vertex="1" connectable="0" parent="j3qhWurZc81nif1GGxjJ-11">
          <mxGeometry x="-0.0429" y="-3" relative="1" as="geometry">
            <mxPoint as="offset" />
          </mxGeometry>
        </mxCell>
        <mxCell id="j3qhWurZc81nif1GGxjJ-1" value="PDF/PPT" style="shape=document;whiteSpace=wrap;html=1;boundedLbl=1;" vertex="1" parent="1">
          <mxGeometry x="50" y="170" width="120" height="80" as="geometry" />
        </mxCell>
        <mxCell id="j3qhWurZc81nif1GGxjJ-20" value="" style="edgeStyle=orthogonalEdgeStyle;rounded=0;orthogonalLoop=1;jettySize=auto;html=1;entryX=0;entryY=0.5;entryDx=0;entryDy=0;" edge="1" parent="1" source="j3qhWurZc81nif1GGxjJ-2" target="j3qhWurZc81nif1GGxjJ-23">
          <mxGeometry relative="1" as="geometry">
            <mxPoint x="420" y="290" as="targetPoint" />
          </mxGeometry>
        </mxCell>
        <mxCell id="j3qhWurZc81nif1GGxjJ-21" value="" style="edgeStyle=orthogonalEdgeStyle;rounded=0;orthogonalLoop=1;jettySize=auto;html=1;" edge="1" parent="1" source="j3qhWurZc81nif1GGxjJ-2" target="j3qhWurZc81nif1GGxjJ-18">
          <mxGeometry relative="1" as="geometry">
            <Array as="points">
              <mxPoint x="420" y="210" />
              <mxPoint x="420" y="290" />
            </Array>
          </mxGeometry>
        </mxCell>
        <mxCell id="j3qhWurZc81nif1GGxjJ-26" style="edgeStyle=orthogonalEdgeStyle;rounded=0;orthogonalLoop=1;jettySize=auto;html=1;entryX=0;entryY=0.5;entryDx=0;entryDy=0;" edge="1" parent="1" source="j3qhWurZc81nif1GGxjJ-2" target="j3qhWurZc81nif1GGxjJ-25">
          <mxGeometry relative="1" as="geometry" />
        </mxCell>
        <mxCell id="j3qhWurZc81nif1GGxjJ-2" value="Docx" style="whiteSpace=wrap;html=1;" vertex="1" parent="1">
          <mxGeometry x="250" y="180" width="120" height="60" as="geometry" />
        </mxCell>
        <mxCell id="j3qhWurZc81nif1GGxjJ-5" value="" style="edgeStyle=orthogonalEdgeStyle;rounded=0;orthogonalLoop=1;jettySize=auto;html=1;" edge="1" parent="1" source="j3qhWurZc81nif1GGxjJ-4" target="j3qhWurZc81nif1GGxjJ-2">
          <mxGeometry relative="1" as="geometry" />
        </mxCell>
        <mxCell id="j3qhWurZc81nif1GGxjJ-4" value="原始Docx" style="rounded=1;whiteSpace=wrap;html=1;" vertex="1" parent="1">
          <mxGeometry x="250" y="280" width="120" height="60" as="geometry" />
        </mxCell>
        <mxCell id="j3qhWurZc81nif1GGxjJ-14" value="" style="edgeStyle=orthogonalEdgeStyle;rounded=0;orthogonalLoop=1;jettySize=auto;html=1;" edge="1" parent="1" source="j3qhWurZc81nif1GGxjJ-10" target="j3qhWurZc81nif1GGxjJ-13">
          <mxGeometry relative="1" as="geometry" />
        </mxCell>
        <mxCell id="j3qhWurZc81nif1GGxjJ-10" value="Docx/PDF/jpg" style="shape=document;whiteSpace=wrap;html=1;boundedLbl=1;" vertex="1" parent="1">
          <mxGeometry x="50" y="390" width="120" height="80" as="geometry" />
        </mxCell>
        <mxCell id="j3qhWurZc81nif1GGxjJ-39" style="edgeStyle=orthogonalEdgeStyle;rounded=0;orthogonalLoop=1;jettySize=auto;html=1;exitX=1;exitY=0.5;exitDx=0;exitDy=0;entryX=0.5;entryY=1;entryDx=0;entryDy=0;" edge="1" parent="1" source="j3qhWurZc81nif1GGxjJ-13" target="j3qhWurZc81nif1GGxjJ-29">
          <mxGeometry relative="1" as="geometry" />
        </mxCell>
        <mxCell id="j3qhWurZc81nif1GGxjJ-13" value="大模型处理" style="shape=document;whiteSpace=wrap;html=1;boundedLbl=1;" vertex="1" parent="1">
          <mxGeometry x="870" y="390" width="120" height="80" as="geometry" />
        </mxCell>
        <mxCell id="j3qhWurZc81nif1GGxjJ-33" style="edgeStyle=orthogonalEdgeStyle;rounded=0;orthogonalLoop=1;jettySize=auto;html=1;exitX=1;exitY=0.5;exitDx=0;exitDy=0;entryX=0;entryY=0.5;entryDx=0;entryDy=0;" edge="1" parent="1" source="j3qhWurZc81nif1GGxjJ-18" target="j3qhWurZc81nif1GGxjJ-27">
          <mxGeometry relative="1" as="geometry" />
        </mxCell>
        <mxCell id="j3qhWurZc81nif1GGxjJ-35" value="" style="edgeStyle=orthogonalEdgeStyle;rounded=0;orthogonalLoop=1;jettySize=auto;html=1;" edge="1" parent="1" source="j3qhWurZc81nif1GGxjJ-18" target="j3qhWurZc81nif1GGxjJ-34">
          <mxGeometry relative="1" as="geometry" />
        </mxCell>
        <mxCell id="j3qhWurZc81nif1GGxjJ-18" value="文本数据Html&lt;br&gt;应当包含表格名图片名，如$表1.1$，图$1.1$" style="whiteSpace=wrap;html=1;" vertex="1" parent="1">
          <mxGeometry x="470" y="260" width="120" height="60" as="geometry" />
        </mxCell>
        <mxCell id="j3qhWurZc81nif1GGxjJ-32" value="" style="edgeStyle=orthogonalEdgeStyle;rounded=0;orthogonalLoop=1;jettySize=auto;html=1;" edge="1" parent="1" source="j3qhWurZc81nif1GGxjJ-23" target="j3qhWurZc81nif1GGxjJ-27">
          <mxGeometry relative="1" as="geometry" />
        </mxCell>
        <mxCell id="j3qhWurZc81nif1GGxjJ-36" style="edgeStyle=orthogonalEdgeStyle;rounded=0;orthogonalLoop=1;jettySize=auto;html=1;exitX=1;exitY=0.5;exitDx=0;exitDy=0;entryX=0;entryY=0.5;entryDx=0;entryDy=0;" edge="1" parent="1" source="j3qhWurZc81nif1GGxjJ-23" target="j3qhWurZc81nif1GGxjJ-34">
          <mxGeometry relative="1" as="geometry" />
        </mxCell>
        <mxCell id="j3qhWurZc81nif1GGxjJ-23" value="表格数据Html&lt;br style=&quot;border-color: var(--border-color);&quot;&gt;对应于文本数据位置" style="rounded=0;whiteSpace=wrap;html=1;" vertex="1" parent="1">
          <mxGeometry x="470" y="150" width="120" height="60" as="geometry" />
        </mxCell>
        <mxCell id="j3qhWurZc81nif1GGxjJ-25" value="图片数据" style="rounded=0;whiteSpace=wrap;html=1;" vertex="1" parent="1">
          <mxGeometry x="470" y="80" width="120" height="60" as="geometry" />
        </mxCell>
        <mxCell id="j3qhWurZc81nif1GGxjJ-30" value="" style="edgeStyle=orthogonalEdgeStyle;rounded=0;orthogonalLoop=1;jettySize=auto;html=1;" edge="1" parent="1" source="j3qhWurZc81nif1GGxjJ-27" target="j3qhWurZc81nif1GGxjJ-29">
          <mxGeometry relative="1" as="geometry" />
        </mxCell>
        <mxCell id="j3qhWurZc81nif1GGxjJ-31" value="符合格式" style="edgeLabel;html=1;align=center;verticalAlign=middle;resizable=0;points=[];" vertex="1" connectable="0" parent="j3qhWurZc81nif1GGxjJ-30">
          <mxGeometry x="-0.4" y="-1" relative="1" as="geometry">
            <mxPoint x="13" y="-1" as="offset" />
          </mxGeometry>
        </mxCell>
        <mxCell id="j3qhWurZc81nif1GGxjJ-27" value="正则化判断，分类符符合格式文本" style="whiteSpace=wrap;html=1;" vertex="1" parent="1">
          <mxGeometry x="670" y="150" width="120" height="60" as="geometry" />
        </mxCell>
        <mxCell id="j3qhWurZc81nif1GGxjJ-41" value="" style="edgeStyle=orthogonalEdgeStyle;rounded=0;orthogonalLoop=1;jettySize=auto;html=1;" edge="1" parent="1" source="j3qhWurZc81nif1GGxjJ-29" target="j3qhWurZc81nif1GGxjJ-40">
          <mxGeometry relative="1" as="geometry" />
        </mxCell>
        <mxCell id="j3qhWurZc81nif1GGxjJ-29" value="最终json结果" style="whiteSpace=wrap;html=1;" vertex="1" parent="1">
          <mxGeometry x="870" y="70" width="120" height="60" as="geometry" />
        </mxCell>
        <mxCell id="j3qhWurZc81nif1GGxjJ-37" style="edgeStyle=orthogonalEdgeStyle;rounded=0;orthogonalLoop=1;jettySize=auto;html=1;exitX=1;exitY=0.5;exitDx=0;exitDy=0;entryX=0.5;entryY=0;entryDx=0;entryDy=0;" edge="1" parent="1" source="j3qhWurZc81nif1GGxjJ-34" target="j3qhWurZc81nif1GGxjJ-13">
          <mxGeometry relative="1" as="geometry" />
        </mxCell>
        <mxCell id="j3qhWurZc81nif1GGxjJ-38" value="人工处理不可行" style="edgeLabel;html=1;align=center;verticalAlign=middle;resizable=0;points=[];" vertex="1" connectable="0" parent="j3qhWurZc81nif1GGxjJ-37">
          <mxGeometry x="-0.1333" y="-1" relative="1" as="geometry">
            <mxPoint as="offset" />
          </mxGeometry>
        </mxCell>
        <mxCell id="j3qhWurZc81nif1GGxjJ-34" value="不符合格式文本：人工处理" style="whiteSpace=wrap;html=1;" vertex="1" parent="1">
          <mxGeometry x="670" y="260" width="120" height="60" as="geometry" />
        </mxCell>
        <mxCell id="j3qhWurZc81nif1GGxjJ-40" value="SFT等" style="whiteSpace=wrap;html=1;" vertex="1" parent="1">
          <mxGeometry x="870" y="-70" width="120" height="60" as="geometry" />
        </mxCell>
        <mxCell id="j3qhWurZc81nif1GGxjJ-43" style="edgeStyle=orthogonalEdgeStyle;rounded=0;orthogonalLoop=1;jettySize=auto;html=1;exitX=1;exitY=0.5;exitDx=0;exitDy=0;entryX=0;entryY=0.5;entryDx=0;entryDy=0;" edge="1" parent="1" source="j3qhWurZc81nif1GGxjJ-42" target="j3qhWurZc81nif1GGxjJ-27">
          <mxGeometry relative="1" as="geometry">
            <Array as="points">
              <mxPoint x="630" y="20" />
              <mxPoint x="630" y="180" />
            </Array>
          </mxGeometry>
        </mxCell>
        <mxCell id="j3qhWurZc81nif1GGxjJ-45" value="" style="edgeStyle=orthogonalEdgeStyle;rounded=0;orthogonalLoop=1;jettySize=auto;html=1;" edge="1" parent="1" source="j3qhWurZc81nif1GGxjJ-42" target="j3qhWurZc81nif1GGxjJ-44">
          <mxGeometry relative="1" as="geometry" />
        </mxCell>
        <mxCell id="j3qhWurZc81nif1GGxjJ-42" value="原始Excle" style="rounded=1;whiteSpace=wrap;html=1;" vertex="1" parent="1">
          <mxGeometry x="260" y="-10" width="120" height="60" as="geometry" />
        </mxCell>
        <mxCell id="j3qhWurZc81nif1GGxjJ-44" value="转换Html" style="rounded=1;whiteSpace=wrap;html=1;" vertex="1" parent="1">
          <mxGeometry x="460" y="-10" width="120" height="60" as="geometry" />
        </mxCell>
      </root>
    </mxGraphModel>
  </diagram>
</mxfile>
